<svg width="201" height="35" viewBox="0 0 201 35" fill="none" xmlns="http://www.w3.org/2000/svg">
<path d="M64.5509 26.704V34.0238H57.9846V0H64.5509V17.8562L73.9835 7.85193H81.9567L71.6382 19.0014L81.9567 34.0238H74.5047L67.313 23.7121L64.5509 26.704Z" fill="#051432"/>
<path d="M104.429 30.5954C101.806 33.0557 98.6528 34.2858 94.9707 34.2857C91.2887 34.2856 88.162 33.0642 85.5908 30.6215C83.0194 28.1793 81.7339 24.9688 81.7344 20.9901C81.7344 16.9778 83.0633 13.7412 85.7211 11.2804C88.3789 8.81959 91.5318 7.58945 95.1797 7.58997C98.8276 7.58997 101.937 8.81132 104.508 11.254C107.079 13.6967 108.365 16.9072 108.364 20.8856C108.364 24.8992 107.052 28.1359 104.429 30.5954ZM90.4108 26.1197C91.6435 27.5158 93.233 28.2137 95.1791 28.2134C97.1252 28.2131 98.6712 27.5239 99.8171 26.1459C100.963 24.7678 101.537 23.0316 101.537 20.9375C101.537 18.8434 100.963 17.1073 99.8171 15.7293C98.6709 14.3511 97.1248 13.6618 95.1791 13.6615C93.2333 13.6612 91.6438 14.3592 90.4108 15.7554C89.1771 17.1515 88.5604 18.8789 88.5606 20.9375C88.5608 22.9962 89.1775 24.7236 90.4108 26.1197Z" fill="#051432"/>
<path d="M125.508 7.58995C128.878 7.58995 131.744 8.84625 134.107 11.3589C136.471 13.8715 137.652 17.0645 137.651 20.9378C137.651 24.8113 136.47 28.0043 134.107 30.5169C131.745 33.0295 128.879 34.2858 125.508 34.2857C122.764 34.2857 120.557 33.361 118.89 31.5115H118.108L117.379 34.0238H112.272V0H118.785V10.4166C120.454 8.53225 122.695 7.59005 125.508 7.58995ZM120.349 25.989C121.391 27.2282 122.781 27.8476 124.518 27.8474C125.349 27.8593 126.175 27.7032 126.944 27.3885C127.714 27.0737 128.413 26.6067 129 26.0153C130.251 24.7941 130.876 23.1016 130.876 20.9378C130.876 18.774 130.251 17.0815 129 15.8604C128.413 15.2691 127.714 14.8023 126.944 14.4876C126.174 14.1729 125.349 14.0167 124.518 14.0283C122.781 14.0283 121.391 14.6478 120.349 15.8866C119.308 17.1254 118.786 18.8092 118.785 20.9378C118.785 23.0669 119.307 24.7506 120.349 25.989Z" fill="#051432"/>
<path d="M162.554 25.2301C162.554 26.6615 162.806 27.6473 163.309 28.1875C163.813 28.7277 164.586 28.9981 165.629 28.9989V34.0239H164.065C160.903 34.0239 158.888 32.9072 158.02 30.6739C156.282 33.0819 153.538 34.2858 149.786 34.2857C146.833 34.2857 144.487 33.5877 142.751 32.1918C141.014 30.7959 140.146 28.9116 140.145 26.5388C140.126 25.3295 140.403 24.134 140.953 23.0579C141.487 22.033 142.289 21.1734 143.272 20.5715C144.228 19.9699 145.23 19.4448 146.268 19.0011C147.433 18.535 148.649 18.2099 149.89 18.0327C151.315 17.8066 152.444 17.6582 153.278 17.5877C154.112 17.5172 155.102 17.4475 156.248 17.3785C156.144 14.6222 154.667 13.2438 151.819 13.2432C151.202 13.2327 150.588 13.3121 149.995 13.4788C149.573 13.5876 149.176 13.7739 148.822 14.0284C148.583 14.215 148.373 14.4355 148.197 14.6828C148.062 14.8621 147.965 15.0665 147.91 15.2842L147.858 15.4934H141.344C141.586 13.1208 142.637 11.2102 144.497 9.7617C146.356 8.31316 148.848 7.58925 151.975 7.58997C155.24 7.58997 157.819 8.46237 159.714 10.2072C161.608 11.952 162.555 14.639 162.554 18.2684L162.554 25.2301ZM146.711 26.3294C146.711 27.5857 147.44 28.3883 148.899 28.7372C150.601 29.156 152.217 28.807 153.746 27.6903C155.24 26.609 156.039 25.0561 156.143 23.0315V22.5082C155.136 22.6131 154.346 22.7091 153.773 22.7961C153.199 22.883 152.487 22.9965 151.636 23.1364C150.955 23.2352 150.284 23.3927 149.629 23.6073C149.124 23.7903 148.628 24 148.144 24.2355C147.705 24.4261 147.327 24.7339 147.05 25.1254C146.821 25.4843 146.703 25.9032 146.711 26.3294Z" fill="#051432"/>
<path d="M169.536 0H176.311V34.0238H169.536V0Z" fill="#051432"/>
<path d="M198.459 27.4285L200.962 32.0873C200.731 32.3112 200.487 32.5209 200.232 32.7153C199.919 32.9599 199.224 33.2827 198.147 33.6837C197.063 34.0857 195.916 34.2894 194.76 34.285C192.188 34.285 189.991 33.4824 188.168 31.8772C186.344 30.272 185.432 28.1782 185.432 25.5958V13.4526H180.219V8.32285H182.825C183.728 8.32285 184.449 8.0437 184.988 7.4854C185.527 6.9271 185.796 6.17667 185.796 5.2341V0H192.101V7.85162H198.668V13.4526H192.101V25.1776C192.096 25.596 192.179 26.0107 192.345 26.3943C192.511 26.7779 192.757 27.1215 193.065 27.4023C193.382 27.704 193.754 27.9402 194.161 28.0974C194.568 28.2546 195.001 28.3297 195.437 28.3183C195.924 28.3127 196.407 28.2333 196.87 28.0829C197.272 27.9651 197.664 27.8164 198.043 27.638L198.459 27.4285Z" fill="#051432"/>
<path d="M29.7495 6.65027V33.5074C22.4443 33.5074 16.5275 27.4981 16.5275 20.0788C16.5275 12.6596 22.4443 6.65027 29.7495 6.65027Z" fill="#F24725"/>
<path d="M16.5275 33.8571V0.285706C7.40431 0.285706 0 7.8057 0 17.0714C0 26.3371 7.40431 33.8571 16.5275 33.8571Z" fill="#F24725"/>
</svg>
