<?xml version="1.0" encoding="UTF-8"?><svg xmlns="http://www.w3.org/2000/svg" width="383" height="99" viewBox="0 0 383 99"><g id="Group-copy-2"><path id="Path" fill="#7515f9" stroke="none" d="M 109.169983 65.779999 L 109.169983 98 L 82.090027 81.890015 L 55.030029 98 L 27.970001 81.890015 L 0.890015 65.779999 L 27.970001 49.66 L 55.030029 65.769989 L 82.090027 49.66 L 109.159973 65.779999 L 109.169983 65.779999 Z"/><path id="path1" fill="#fc7112" stroke="none" d="M 109.169983 33.550018 L 82.090027 49.66 L 55.030029 33.550018 L 27.970001 49.66 L 0.890015 33.550018 L 27.959991 17.429993 L 55.030029 1.320007 L 82.090027 17.429993 L 109.169983 33.550018 Z"/></g><g id="Group-copy"><path id="path2" fill="#010428" stroke="none" d="M 204.26001 48.41 C 204.26001 28.360016 188.700012 12.110016 168.049988 12.110016 C 147.400024 12.110016 131.650024 28.360016 131.650024 48.41 C 131.650024 68.459991 147.309998 84.519989 168.049988 84.519989 C 173.340027 84.519989 178.330017 83.420013 182.809998 81.529999 L 187.799988 88.910004 L 202.960022 88.910004 L 193.659973 74.179993 L 186.01001 62.080013 L 182.909973 57.489986 L 167.75 57.489986 L 176.130005 70.160004 C 173.73999 71.050018 171.039978 71.550018 168.049988 71.550018 C 154.48999 71.550018 146.109985 61.080013 146.109985 48.41 C 146.109985 35.739986 154.48999 25.070007 168.049988 25.070007 C 181.609985 25.070007 189.799988 35.749996 189.799988 48.41 C 189.799988 53.499996 188.5 58.189999 186.01001 62.080013 L 201.690002 62.080013 C 203.349976 57.869991 204.26001 53.249996 204.26001 48.41 Z"/><path id="path3" fill="#010428" stroke="none" d="M 235.380005 30.160004 C 219.320007 30.160004 207.75 42.429989 207.75 57.390011 C 207.75 72.350006 219.320007 84.519989 235.380005 84.519989 C 251.440002 84.519989 263.01001 72.350006 263.01001 57.390011 C 263.01001 42.429989 251.440002 30.160004 235.380005 30.160004 Z M 235.380005 72.25 C 226.799988 72.25 221.219971 65.470001 221.219971 57.390011 C 221.219971 49.309994 226.799988 42.429989 235.380005 42.429989 C 243.960022 42.429989 249.539978 49.309994 249.539978 57.390011 C 249.539978 65.470001 243.960022 72.25 235.380005 72.25 Z"/><path id="path4" fill="#010428" stroke="none" d="M 381.109985 57.390011 C 381.109985 42.429989 370.340027 30.059998 354.780029 30.059998 C 339.219971 30.059998 327.950012 42.429989 327.950012 57.390011 C 327.950012 72.350006 338.719971 84.519989 354.780029 84.519989 C 365.049988 84.519989 373.72998 79.929993 377.919983 73.450012 L 367.440002 65.570007 C 365.049988 69.559998 360.559998 72.550018 354.780029 72.550018 C 350.51001 72.550018 347.119995 70.850006 344.809998 68.080017 C 344.809998 68.080017 344.719971 67.970001 344.570007 67.76001 C 343.51001 66.420013 342.710022 64.850006 342.179993 63.110012 C 342.169983 63.070004 342.150024 63.040005 342.150024 62.999996 C 342.059998 62.739986 341.97998 62.459988 341.900024 62.179989 L 380.710022 62.179989 C 381.01001 60.480007 381.109985 58.880001 381.109985 57.390011 Z M 350 52.100002 L 341.900024 62.179989 C 341.130005 59.510006 340.789978 56.059994 341.909973 52.100002 C 343.409973 45.92001 348.190002 41.630001 354.580017 41.630001 C 360.969971 41.630001 366.049988 46.320004 367.539978 52.100002 L 350 52.100002 Z"/><path id="path5" fill="#010428" stroke="none" d="M 308.48999 37.010006 L 308.48999 58.439999 C 308.48999 61.869991 307.359985 65.26001 305.059998 67.800018 C 302.530029 70.589996 298.849976 72.350006 294.330017 72.350006 C 285.75 72.350006 279.969971 65.269989 279.969971 57.390011 C 279.969971 49.510006 285.659973 42.540005 294.130005 42.439999 C 297.530029 42.480007 299.710022 43.839993 300.780029 44.730007 L 301.349976 44.14999 L 308.48999 37.010006 C 307.119995 35.429989 304.380005 32.940002 299.669983 31.380005 L 299.669983 31.399994 C 297.570007 30.670013 295.090027 30.26001 292.140015 30.26001 C 277.869995 30.26001 266.5 42.529995 266.5 57.489986 C 266.5 72.450012 277.869995 84.519989 292.140015 84.519989 C 294.469971 84.519989 296.5 84.269989 298.289978 83.809998 L 298.289978 83.809998 C 303.140015 82.619995 306.380005 80.709991 308.48999 78.980011 L 308.48999 83.220001 L 321.960022 83.220001 L 321.960022 10.410004 L 308.48999 10.410004 L 308.48999 37.010006 Z"/></g></svg>