<?xml version="1.0" encoding="UTF-8"?><svg xmlns="http://www.w3.org/2000/svg" id="Layer_2" data-name="Layer 2" viewBox="0 0 581.66 212.28"><defs><style> .cls-1 { fill: #151322; } .cls-1, .cls-2 { fill-rule: evenodd; } .cls-2 { fill: #e4087f; } </style></defs><g id="Layer_1-2" data-name="Layer 1"><g><path class="cls-1" d="M479.6,127.01V25.58h-74.38l33.51,25.58v75.84h-33.51V25.58h-40.87V0l-53.68,70.44v56.57h-33.15v-56.57L224.19,0h37.29l32.43,44.14L326.7,0h152.89v25.58h32.25v24.14h66.21v25.4h-66.21v26.3h69.81v25.58h-102.06ZM18.58,16.25C29.14,5.49,45.91,0,66.23,0h44.24l-18.99,24.92h-21.16c-12.34,0-21.74,3.28-28.15,9.82-7.14,7.28-10.36,19.61-9.69,31.59.56,9.98,3.82,19.63,9.75,25.71,6.46,6.62,15.83,9.94,28.09,9.94h51.43v25.04h-55.53c-20.18,0-37.02-4.82-47.65-15.72C6.36,98.75-.04,80.93,0,63.41.04,46.13,6.46,28.6,18.58,16.25h0ZM206.97,61.07c6.25-2.28,11.11-5.92,14.59-10.9,3.48-4.98,5.22-10.72,5.22-17.21,0-10.09-3.93-18.1-11.8-24.05-7.87-5.94-18.47-8.92-31.8-8.92h-61.43v101.97h32.25v-27.02h26.84c6.61,0,11.32,1.05,14.14,3.15,2.82,2.1,4.23,5.55,4.23,10.36s-1.41,8.26-4.23,10.36c-2.82,2.1-7.54,3.15-14.14,3.15h-26.84v25.04h30.99c9.13,0,17.09-1.44,23.87-4.32,6.79-2.88,12.01-6.93,15.67-12.16,3.66-5.22,5.49-11.32,5.49-18.29,0-7.81-1.98-14.38-5.95-19.72-3.96-5.35-9.67-9.16-17.11-11.44h0ZM154,49.9v-24.86h23.6c6.24,0,10.81,1.02,13.69,3.06,2.88,2.04,4.32,5.29,4.32,9.73,0,4.2-1.44,7.27-4.32,9.19-2.88,1.92-7.45,2.88-13.69,2.88h-23.6ZM511.85,0v25.58h69.81V0h-69.81Z"/><g><path class="cls-2" d="M454.96,154.41v6.57h7.57v-6.57h-7.57ZM455.69,167.54v31.84h6.07v-31.84h-6.07ZM501.48,154.41v6.57h7.57v-6.57h-7.57ZM502.26,167.54v31.84h6.07v-31.84h-6.07ZM572.08,154.77v44.61h6.11v-44.61h-6.11Z"/><path class="cls-2" d="M560.13,167.54v9.12c-.09-.55-.23-1.05-.36-1.55-.68-2.51-1.92-4.47-3.69-5.97-1.78-1.51-4.24-2.23-7.43-2.23-2.87,0-5.52.73-7.85,2.14-2.33,1.41-4.2,3.38-5.52,5.88-1.37,2.46-2.01,5.34-2.01,8.57s.64,6.07,1.96,8.57c1.32,2.51,3.1,4.42,5.38,5.84,2.23,1.41,4.74,2.1,7.48,2.1,2.46,0,4.51-.5,6.16-1.55,1.69-1.05,2.97-2.42,3.92-4.1.87-1.69,1.55-3.38,1.96-5.24v3.33c0,.82.05,1.82.14,2.92.09,1.09.18,2.05.23,2.83.09.82.14,1.19.14,1.19h5.61v-31.84h-6.11ZM558.99,189.16c-.78,1.73-1.92,3.06-3.47,4.06-1.6,1-3.47,1.51-5.75,1.51-2.01,0-3.83-.46-5.38-1.41-1.55-.96-2.78-2.28-3.65-3.97-.91-1.69-1.37-3.65-1.37-5.84,0-3.28.91-5.97,2.74-8.12,1.78-2.14,4.38-3.19,7.66-3.19,2.23,0,4.1.46,5.66,1.41,1.55.91,2.74,2.23,3.51,3.97.77,1.69,1.19,3.65,1.19,5.93,0,2.1-.36,3.97-1.14,5.66Z"/><polygon class="cls-2" points="532.49 167.54 532.49 172.83 525.2 172.83 525.2 199.38 519.18 199.38 519.18 172.83 511.88 172.83 511.88 167.54 519.18 167.54 519.18 159.1 525.2 159.1 525.2 167.54 532.49 167.54"/><path class="cls-2" d="M498.74,173.29v-5.75h-13.91c-.68-.23-1.41-.36-2.14-.5-.73-.09-1.46-.14-2.28-.14-2.74,0-5.2.55-7.39,1.69-2.19,1.14-3.92,2.74-5.2,4.79-1.28,2.05-1.92,4.52-1.92,7.39s.64,5.34,1.96,7.39c1.28,2.05,3.06,3.6,5.25,4.65.64.32,1.28.55,1.96.73-.96,0-1.92.05-2.83.18-1.6.27-2.87.77-3.92,1.64-1,.87-1.51,2.1-1.51,3.79,0,.82.18,1.6.5,2.33.32.68.87,1.28,1.6,1.78.73.5,1.64.87,2.74,1.09,1.14.27,2.46.41,4.01.41h7.48c2.33,0,4.06.46,5.24,1.41,1.19.91,1.78,2.46,1.78,4.65v1.46h6.07v-2.83c0-2.55-.55-4.56-1.64-6.02-1.05-1.46-2.55-2.51-4.47-3.1-1.87-.64-4.01-.96-6.48-.96h-7.75c-.96,0-1.69-.18-2.19-.55-.5-.41-.78-.91-.78-1.55,0-1.09.64-1.82,1.92-2.14,1.28-.37,3.15-.59,5.56-.73,2.69,0,5.11-.55,7.3-1.6,2.19-1.05,3.92-2.6,5.2-4.65,1.23-2.05,1.87-4.47,1.87-7.3,0-1.64-.27-3.15-.87-4.47-.59-1.37-1.41-2.55-2.46-3.65-.68-.68-1.46-1.32-2.28-1.87,1.14.5,2.42,1,3.79,1.46,1.92.64,3.88.96,5.79.96ZM487.61,185.37c-.77,1.28-1.78,2.23-3.01,2.87-1.28.68-2.65,1-4.2,1s-3.01-.32-4.29-1c-1.28-.64-2.28-1.6-3.06-2.87-.77-1.23-1.14-2.78-1.14-4.56,0-1.87.37-3.47,1.14-4.74.78-1.28,1.78-2.24,3.1-2.87,1.28-.68,2.69-1,4.24-1s2.92.32,4.2,1c1.28.64,2.28,1.64,3.06,2.92.73,1.32,1.09,2.87,1.09,4.7s-.36,3.33-1.14,4.56Z"/><path class="cls-2" d="M442.74,154.77v21.89c-.41-1.82-1-3.47-1.92-4.93-.91-1.51-2.23-2.69-3.88-3.56-1.64-.87-3.74-1.28-6.25-1.28-2.92,0-5.47.73-7.66,2.14-2.24,1.41-3.97,3.38-5.25,5.88-1.28,2.46-1.92,5.34-1.92,8.57s.64,6.07,1.96,8.57c1.28,2.51,3.06,4.42,5.34,5.84,2.23,1.41,4.74,2.1,7.53,2.1,2.46,0,4.52-.5,6.2-1.55,1.64-1.05,2.92-2.42,3.88-4.1.87-1.64,1.55-3.33,1.96-5.15v3.24c0,.96.05,2.14.18,3.51.09,1.37.23,2.51.32,3.42h5.66v-44.61h-6.16ZM441.59,189.16c-.78,1.73-1.92,3.06-3.47,4.06-1.55,1-3.47,1.51-5.7,1.51-2.05,0-3.88-.46-5.43-1.41-1.55-.96-2.78-2.28-3.65-3.97-.91-1.69-1.37-3.65-1.37-5.84,0-3.28.91-5.97,2.74-8.12,1.82-2.14,4.38-3.19,7.71-3.19,2.19,0,4.06.46,5.61,1.41,1.55.91,2.74,2.23,3.51,3.97.82,1.69,1.19,3.65,1.19,5.93,0,2.1-.36,3.97-1.14,5.66Z"/></g></g></g></svg>