<?xml version="1.0" encoding="UTF-8"?>
<svg id="Anchors" xmlns="http://www.w3.org/2000/svg">
  <defs>
    <style>
      .cls-1 {
        fill: #7515f9;
      }

      .cls-1, .cls-2, .cls-3 {
        stroke-width: 0px;
      }

      .cls-2 {
        fill: #fc7112;
      }

      .cls-3 {
        fill: #010428;
      }
    </style>
  </defs>
  <g>
    <polygon class="cls-1" points="568.17 466.12 568.17 498.34 541.09 482.23 514.03 498.34 486.97 482.23 459.89 466.12 486.97 450 514.03 466.11 541.09 450 568.16 466.12 568.17 466.12"/>
    <polygon class="cls-2" points="568.17 433.89 541.09 450 514.03 433.89 486.97 450 459.89 433.89 486.96 417.77 514.03 401.66 541.09 417.77 568.17 433.89"/>
  </g>
  <g>
    <path class="cls-3" d="M663.26,448.75c0-20.05-15.56-36.3-36.21-36.3s-36.4,16.25-36.4,36.3,15.66,36.11,36.4,36.11c5.29,0,10.28-1.1,14.76-2.99l4.99,7.38h15.16l-9.3-14.73-7.65-12.1-3.1-4.59h-15.16l8.38,12.67c-2.39.89-5.09,1.39-8.08,1.39-13.56,0-21.94-10.47-21.94-23.14s8.38-23.34,21.94-23.34,21.75,10.68,21.75,23.34c0,5.09-1.3,9.78-3.79,13.67h15.68c1.66-4.21,2.57-8.83,2.57-13.67Z"/>
    <path class="cls-3" d="M694.38,430.5c-16.06,0-27.63,12.27-27.63,27.23s11.57,27.13,27.63,27.13,27.63-12.17,27.63-27.13-11.57-27.23-27.63-27.23ZM694.38,472.59c-8.58,0-14.16-6.78-14.16-14.86s5.58-14.96,14.16-14.96,14.16,6.88,14.16,14.96-5.58,14.86-14.16,14.86Z"/>
    <path class="cls-3" d="M840.11,457.73c0-14.96-10.77-27.33-26.33-27.33s-26.83,12.37-26.83,27.33,10.77,27.13,26.83,27.13c10.27,0,18.95-4.59,23.14-11.07l-10.48-7.88c-2.39,3.99-6.88,6.98-12.66,6.98-4.27,0-7.66-1.7-9.97-4.47,0,0-.09-.11-.24-.32-1.06-1.34-1.86-2.91-2.39-4.65-.01-.04-.03-.07-.03-.11-.09-.26-.17-.54-.25-.82h38.81c.3-1.7.4-3.3.4-4.79ZM809,452.44l-8.1,10.08c-.77-2.67-1.11-6.12.01-10.08,1.5-6.18,6.28-10.47,12.67-10.47s11.47,4.69,12.96,10.47h-17.54Z"/>
    <path class="cls-3" d="M767.49,437.35v21.43c0,3.43-1.13,6.82-3.43,9.36-2.53,2.79-6.21,4.55-10.73,4.55-8.58,0-14.36-7.08-14.36-14.96s5.69-14.85,14.16-14.95c3.4.04,5.58,1.4,6.65,2.29l.57-.58,7.14-7.14c-1.37-1.58-4.11-4.07-8.82-5.63v.02c-2.1-.73-4.58-1.14-7.53-1.14-14.27,0-25.64,12.27-25.64,27.23s11.37,27.03,25.64,27.03c2.33,0,4.36-.25,6.15-.71h0c4.85-1.19,8.09-3.1,10.2-4.83v4.24h13.47v-72.81h-13.47v26.6Z"/>
  </g>
</svg>