<svg xmlns="http://www.w3.org/2000/svg" viewBox="0 0 204 24" fill="none"><path d="M12 0C5.37654 0 0 5.37654 0 12C0 18.6296 5.37654 24 12 24C18.6296 24 24 18.6296 24 12C24.0062 5.37654 18.6296 0 12 0ZM12 18.9753C8.14815 18.9753 5.02469 15.8519 5.02469 12C5.02469 8.14815 8.14815 5.02469 12 5.02469C15.8519 5.02469 18.9753 8.14815 18.9753 12C18.9753 15.8519 15.8519 18.9753 12 18.9753ZM89.8457 0C83.2161 0 77.8457 5.37654 77.8457 12C77.8457 18.6296 83.2222 24 89.8457 24C96.4753 24 101.846 18.6296 101.846 12C101.852 5.37654 96.4753 0 89.8457 0ZM89.8457 18.9753C85.9938 18.9753 82.8765 15.8519 82.8765 12C82.8765 8.14815 86 5.02469 89.8457 5.02469C93.6975 5.02469 96.821 8.14815 96.821 12C96.821 15.8519 93.7037 18.9753 89.8457 18.9753ZM44.6975 0.574074H31.6852C29.9877 0.574074 28.3025 0.62963 26.6358 0.734568V23.4383H31.6667V4.91975H37.1543V23.4383H42.1852V4.91975H44.1296C46.0864 4.91975 47.6728 6.50617 47.6728 8.46296V23.4383H52.7037V8.57407C52.6975 4.15432 49.1173 0.574074 44.6975 0.574074ZM115.457 0.574074H109.278C107.586 0.574074 105.92 0.62963 104.253 0.734568V23.4383H109.284V4.91975H114.889C116.846 4.91975 118.432 6.50617 118.432 8.46296V23.4383H123.463V8.57407C123.457 4.15432 119.877 0.574074 115.457 0.574074ZM76.1296 8.45679C76.1296 4.09877 72.5988 0.567901 68.2407 0.567901H61.6111C59.9198 0.567901 58.2469 0.623457 56.5864 0.728395V23.4321H61.6173V4.91358H67.5617C69.5185 4.91358 71.1049 6.5 71.1049 8.45679C71.1049 10.4136 69.5185 12 67.5617 12H63.2161L70.9877 23.4321H77.1605L71.5679 15.2037C74.2407 14.1358 76.1296 11.5185 76.1296 8.45679Z" fill="#005EB8"/><path d="M146.699 8.45605V17.0001H145.031V13.4241H142.127V17.0001H140.459V8.45605H142.127V11.9361H145.031V8.45605H146.699Z" fill="black"/><path d="M151.458 10.6761C152.314 10.6761 152.982 10.9561 153.462 11.5161C153.942 12.0681 154.182 12.7961 154.182 13.7001V14.3601H150.27C150.27 14.7761 150.39 15.1121 150.63 15.3681C150.87 15.6241 151.206 15.7521 151.638 15.7521C151.958 15.7521 152.218 15.7081 152.418 15.6201C152.626 15.5241 152.834 15.3721 153.042 15.1641L154.002 16.0881C153.666 16.4321 153.318 16.6841 152.958 16.8441C152.606 16.9961 152.162 17.0721 151.626 17.0721C151.226 17.0721 150.862 17.0241 150.534 16.9281C150.214 16.8241 149.91 16.6561 149.622 16.4241C149.342 16.1921 149.122 15.8601 148.962 15.4281C148.81 14.9961 148.734 14.4761 148.734 13.8681C148.734 12.8681 148.982 12.0881 149.478 11.5281C149.974 10.9601 150.634 10.6761 151.458 10.6761ZM151.458 11.9721C150.946 11.9721 150.594 12.1881 150.402 12.6201C150.33 12.7801 150.286 13.0041 150.27 13.2921H152.634C152.618 13.0041 152.574 12.7801 152.502 12.6201C152.31 12.1881 151.962 11.9721 151.458 11.9721Z" fill="black"/><path d="M158.164 10.6761C159.94 10.6761 160.828 11.4121 160.828 12.8841V17.0001H159.304V16.4601C159.088 16.6761 158.864 16.8321 158.632 16.9281C158.408 17.0161 158.12 17.0601 157.768 17.0601C157.072 17.0601 156.54 16.8761 156.172 16.5081C155.828 16.1481 155.656 15.6801 155.656 15.1041C155.656 14.5761 155.84 14.1441 156.208 13.8081C156.576 13.4641 157.112 13.2921 157.816 13.2921H159.268V12.9801C159.268 12.6361 159.176 12.3881 158.992 12.2361C158.808 12.0761 158.512 11.9961 158.104 11.9961C157.616 11.9961 157.216 12.1761 156.904 12.5361L155.92 11.5641C156.224 11.2281 156.54 10.9961 156.868 10.8681C157.204 10.7401 157.636 10.6761 158.164 10.6761ZM159.268 14.3601H158.08C157.464 14.3601 157.156 14.6001 157.156 15.0801C157.156 15.5521 157.472 15.7881 158.104 15.7881C158.512 15.7881 158.82 15.6881 159.028 15.4881C159.188 15.3521 159.268 15.0881 159.268 14.6961V14.3601Z" fill="black"/><path d="M164.49 8.45605V15.1161C164.49 15.4921 164.674 15.6801 165.042 15.6801H165.642V17.0001H164.754C164.154 17.0001 163.698 16.8281 163.386 16.4841C163.082 16.1321 162.93 15.7081 162.93 15.2121V8.45605H164.49Z" fill="black"/><path d="M169.018 9.08005V10.9281H170.122V12.1161H169.018V15.1161C169.018 15.4921 169.198 15.6801 169.558 15.6801H170.122V17.0001H169.27C168.678 17.0001 168.226 16.8241 167.914 16.4721C167.61 16.1201 167.458 15.7001 167.458 15.2121V12.1161H166.798V10.9281H167.458V9.08005H169.018Z" fill="black"/><path d="M177.208 17.0001H175.648V13.2201C175.648 12.8281 175.544 12.5401 175.336 12.3561C175.136 12.1721 174.896 12.0801 174.616 12.0801C174.328 12.0801 174.08 12.1721 173.872 12.3561C173.672 12.5401 173.572 12.8281 173.572 13.2201V17.0001H172.012V8.45605H173.572V11.3241C173.964 10.8921 174.472 10.6761 175.096 10.6761C175.712 10.6761 176.204 10.8601 176.572 11.2281C176.996 11.6521 177.208 12.2441 177.208 13.0041V17.0001Z" fill="black"/><path d="M181.903 10.6761C182.727 10.6761 183.415 10.9561 183.967 11.5161L182.899 12.5721C182.595 12.2441 182.263 12.0801 181.903 12.0801C181.543 12.0801 181.247 12.2161 181.015 12.4881C180.783 12.7761 180.667 13.2361 180.667 13.8681C180.667 14.5081 180.783 14.9721 181.015 15.2601C181.247 15.5321 181.543 15.6681 181.903 15.6681C182.247 15.6681 182.579 15.5041 182.899 15.1761L183.967 16.2201C183.407 16.7881 182.719 17.0721 181.903 17.0721C181.559 17.0721 181.231 17.0241 180.919 16.9281C180.615 16.8241 180.319 16.6601 180.031 16.4361C179.751 16.2041 179.527 15.8681 179.359 15.4281C179.191 14.9881 179.107 14.4681 179.107 13.8681C179.107 13.2681 179.191 12.7521 179.359 12.3201C179.527 11.8801 179.751 11.5481 180.031 11.3241C180.319 11.0921 180.615 10.9281 180.919 10.8321C181.231 10.7281 181.559 10.6761 181.903 10.6761Z" fill="black"/><path d="M187.669 10.6761C189.445 10.6761 190.333 11.4121 190.333 12.8841V17.0001H188.809V16.4601C188.593 16.6761 188.369 16.8321 188.137 16.9281C187.913 17.0161 187.625 17.0601 187.273 17.0601C186.577 17.0601 186.045 16.8761 185.677 16.5081C185.333 16.1481 185.161 15.6801 185.161 15.1041C185.161 14.5761 185.345 14.1441 185.713 13.8081C186.081 13.4641 186.617 13.2921 187.321 13.2921H188.773V12.9801C188.773 12.6361 188.681 12.3881 188.497 12.2361C188.313 12.0761 188.017 11.9961 187.609 11.9961C187.121 11.9961 186.721 12.1761 186.409 12.5361L185.425 11.5641C185.729 11.2281 186.045 10.9961 186.373 10.8681C186.709 10.7401 187.141 10.6761 187.669 10.6761ZM188.773 14.3601H187.585C186.969 14.3601 186.661 14.6001 186.661 15.0801C186.661 15.5521 186.977 15.7881 187.609 15.7881C188.017 15.7881 188.325 15.6881 188.533 15.4881C188.693 15.3521 188.773 15.0881 188.773 14.6961V14.3601Z" fill="black"/><path d="M195.591 10.6761C196.191 10.6761 196.683 10.8721 197.067 11.2641L195.903 12.4521C195.655 12.2041 195.379 12.0801 195.075 12.0801C194.803 12.0801 194.563 12.1801 194.355 12.3801C194.155 12.5801 194.055 12.8641 194.055 13.2321V17.0001H192.495V10.7481H194.019V11.3481C194.179 11.1561 194.399 10.9961 194.679 10.8681C194.967 10.7401 195.271 10.6761 195.591 10.6761Z" fill="black"/><path d="M200.485 10.6761C201.341 10.6761 202.009 10.9561 202.489 11.5161C202.969 12.0681 203.209 12.7961 203.209 13.7001V14.3601H199.297C199.297 14.7761 199.417 15.1121 199.657 15.3681C199.897 15.6241 200.233 15.7521 200.665 15.7521C200.985 15.7521 201.245 15.7081 201.445 15.6201C201.653 15.5241 201.861 15.3721 202.069 15.1641L203.029 16.0881C202.693 16.4321 202.345 16.6841 201.985 16.8441C201.633 16.9961 201.189 17.0721 200.653 17.0721C200.253 17.0721 199.889 17.0241 199.561 16.9281C199.241 16.8241 198.937 16.6561 198.649 16.4241C198.369 16.1921 198.149 15.8601 197.989 15.4281C197.837 14.9961 197.761 14.4761 197.761 13.8681C197.761 12.8681 198.009 12.0881 198.505 11.5281C199.001 10.9601 199.661 10.6761 200.485 10.6761ZM200.485 11.9721C199.973 11.9721 199.621 12.1881 199.429 12.6201C199.357 12.7801 199.313 13.0041 199.297 13.2921H201.661C201.645 13.0041 201.601 12.7801 201.529 12.6201C201.337 12.1881 200.989 11.9721 200.485 11.9721Z" fill="black"/></svg>