<?xml version="1.0" encoding="utf-8"?>
<!-- Generator: Adobe Illustrator 23.0.1, SVG Export Plug-In . SVG Version: 6.00 Build 0)  -->
<svg version="1.1" id="Layer_1" xmlns="http://www.w3.org/2000/svg" xmlns:xlink="http://www.w3.org/1999/xlink" x="0px" y="0px"
	 viewBox="0 0 363.119 48" enable-background="new 0 0 363.119 48" xml:space="preserve">
<g id="green_logo">
	<g>
		<g opacity="0.25">
			<path fill="#4DAF4E" d="M12.589,4.95L10.786,0H0l1.516,4.235h5.837l7.897,21.346h24.663L47.58,4.95H12.589z M36.54,21.664H18.43
				L13.611,8.955h27.558L36.54,21.664z"/>
			<circle fill="#4DAF4E" cx="17.933" cy="31.358" r="3.881"/>
			<circle fill="#4DAF4E" cx="37.714" cy="31.358" r="3.881"/>
		</g>
		<g opacity="0.5">
			<path fill="#4DAF4E" d="M24.214,4.95L22.411,0H11.625l1.516,4.235h5.837l7.897,21.346h24.663l7.668-20.63H24.214z M48.164,21.664
				H30.055L25.236,8.955h27.558L48.164,21.664z"/>
			<circle fill="#4DAF4E" cx="29.558" cy="31.358" r="3.881"/>
			<circle fill="#4DAF4E" cx="49.339" cy="31.358" r="3.881"/>
		</g>
		<g>
			<path fill="#4DAF4E" d="M35.838,4.95L34.036,0H23.249l1.516,4.235h5.837l7.897,21.346h24.663L70.83,4.95H35.838z M59.789,21.664
				H41.68L36.86,8.955h27.558L59.789,21.664z"/>
			<circle fill="#4DAF4E" cx="41.182" cy="31.358" r="3.881"/>
			<circle fill="#4DAF4E" cx="60.963" cy="31.358" r="3.881"/>
		</g>
	</g>
	<g>
		<path fill="#4DAF4E" d="M79.634,28.632c2.221,0.734,5.378,1.101,9.47,1.101c3.671,0,5.662-1.101,5.974-3.304
			c0.018-0.128,0.027-0.248,0.027-0.358c0-1.633-1.679-2.707-5.038-3.221c-6.185-0.495-9.278-2.982-9.278-7.461
			c0-0.514,0.037-1.055,0.11-1.624c0.826-5.873,4.726-8.81,11.701-8.81c2.698,0,5.662,0.459,8.892,1.376l-2.12,5.231
			c-2.24-0.734-4.763-1.101-7.571-1.101c-3.304,0-5.103,1.101-5.396,3.303c-0.018,0.129-0.027,0.257-0.027,0.386
			c0,1.615,1.487,2.68,4.46,3.193c6.571,0.496,9.856,3.019,9.856,7.571c0,0.477-0.037,0.982-0.11,1.514
			c-0.826,5.874-4.91,8.81-12.251,8.81c-3.983,0-7.589-0.458-10.819-1.377L79.634,28.632z"/>
		<path fill="#4DAF4E" d="M105.936,4.956h5.506l-2.725,19.271c-0.055,0.459-0.083,0.881-0.083,1.267c0,2.827,1.606,4.24,4.818,4.24
			c0.936,0,1.863-0.046,2.781-0.138c0.918-0.092,1.854-0.229,2.808-0.413l3.414-24.227h5.506l-3.882,27.531
			c-2.092,1.835-5.892,2.753-11.398,2.753c-6.442,0-9.663-2.826-9.663-8.479c0-0.789,0.064-1.633,0.193-2.533L105.936,4.956z"/>
		<path fill="#4DAF4E" d="M131.357,6.332c1.964-0.917,5.699-1.376,11.205-1.376c6.35,0,9.526,3.083,9.526,9.25
			c0,0.973-0.083,2.019-0.248,3.139l-0.798,5.506c-1.156,8.259-5.405,12.389-12.747,12.389c-1.835,0-3.634-0.275-5.396-0.826
			l-1.652,11.838l-5.699,1.377L131.357,6.332z M146.334,17.344c0.092-0.679,0.138-1.312,0.138-1.899c0-3.322-1.56-4.983-4.68-4.983
			c-0.936,0-1.863,0.046-2.78,0.138c-0.918,0.092-1.854,0.23-2.808,0.413l-2.561,18.17c0.918,0.184,1.817,0.321,2.698,0.413
			c0.881,0.092,1.79,0.138,2.725,0.138c3.671,0,5.827-2.294,6.47-6.883L146.334,17.344z"/>
		<path fill="#4DAF4E" d="M155.209,18.721c1.303-9.177,5.901-13.765,13.793-13.765c6.405,0,9.608,3.331,9.608,9.994
			c0,1.156-0.092,2.414-0.276,3.772c-0.385,2.753-1.037,4.13-1.954,4.13h-16.243c-0.092,0.679-0.138,1.312-0.138,1.9
			c0,3.322,1.559,4.983,4.68,4.983c3.616,0,6.562-0.404,8.838-1.211l0.33,5.093c-2.056,1.083-5.369,1.624-9.939,1.624
			c-6.24,0-9.36-3.322-9.36-9.966c0-1.174,0.092-2.441,0.276-3.799L155.209,18.721z M172.994,17.62
			c0.092-0.697,0.137-1.349,0.137-1.955c0-3.469-1.643-5.203-4.928-5.203c-4.222,0-6.662,2.386-7.323,7.158H172.994z"/>
		<path fill="#4DAF4E" d="M182.584,6.332c2.019-0.917,5.754-1.376,11.205-1.376c1.266,0,2.404,0.11,3.414,0.33l-2.01,5.451
			c-0.587-0.183-1.321-0.275-2.202-0.275c-0.936,0-1.859,0.046-2.767,0.138c-0.908,0.092-1.841,0.23-2.794,0.413l-3.414,24.227
			h-5.506L182.584,6.332z"/>
		<path fill="#4DAF4E" d="M197.076,28.632c2.221,0.734,5.378,1.101,9.47,1.101c3.671,0,5.662-1.101,5.974-3.304
			c0.018-0.128,0.027-0.248,0.027-0.358c0-1.633-1.679-2.707-5.038-3.221c-6.186-0.495-9.278-2.982-9.278-7.461
			c0-0.514,0.036-1.055,0.11-1.624c0.826-5.873,4.726-8.81,11.701-8.81c2.698,0,5.662,0.459,8.892,1.376l-2.12,5.231
			c-2.24-0.734-4.763-1.101-7.571-1.101c-3.304,0-5.103,1.101-5.396,3.303c-0.018,0.129-0.027,0.257-0.027,0.386
			c0,1.615,1.486,2.68,4.46,3.193c6.571,0.496,9.856,3.019,9.856,7.571c0,0.477-0.037,0.982-0.11,1.514
			c-0.826,5.874-4.91,8.81-12.251,8.81c-3.983,0-7.59-0.458-10.82-1.377L197.076,28.632z"/>
		<path fill="#4DAF4E" d="M221.423,18.721c1.303-9.177,6.084-13.765,14.343-13.765c3.616,0,6.305,0.459,8.066,1.376l-2.12,5.231
			c-1.707-0.734-3.956-1.101-6.745-1.101c-4.589,0-7.268,2.753-8.039,8.259l-0.385,2.753c-0.11,0.789-0.165,1.524-0.165,2.202
			c0,4.038,1.964,6.057,5.892,6.057c2.79,0,5.139-0.367,7.048-1.101l0.633,5.231c-2.019,0.918-4.837,1.377-8.452,1.377
			c-7.14,0-10.71-3.441-10.71-10.324c0-1.064,0.083-2.212,0.248-3.441L221.423,18.721z"/>
		<path fill="#4DAF4E" d="M248.028,6.773c3.157-1.211,6.231-1.817,9.223-1.817c6.424,0,9.636,2.808,9.636,8.424
			c0,0.808-0.064,1.67-0.193,2.588l-2.312,16.518c-2.092,1.835-5.892,2.753-11.398,2.753c-6.553,0-9.828-2.487-9.828-7.461
			c0-0.606,0.045-1.239,0.137-1.9c0.918-6.607,6.883-9.911,17.895-9.911c0.055-0.459,0.082-0.881,0.082-1.267
			c0-2.826-1.606-4.24-4.818-4.24c-2.46,0-4.965,0.413-7.516,1.239L248.028,6.773z M260.417,21.474
			c-7.342,0-11.214,1.468-11.618,4.405c-0.037,0.239-0.055,0.459-0.055,0.661c0,2.13,1.67,3.194,5.011,3.194
			c0.936,0,1.863-0.046,2.781-0.138c0.917-0.092,1.854-0.229,2.808-0.413L260.417,21.474z"/>
		<path fill="#4DAF4E" d="M271.66,6.332c2.019-0.917,5.754-1.376,11.205-1.376c6.424,0,9.636,2.808,9.636,8.424
			c0,0.808-0.064,1.67-0.193,2.588l-2.698,19.271h-5.506l2.698-19.271c0.055-0.459,0.082-0.881,0.082-1.267
			c0-2.826-1.606-4.24-4.818-4.24c-0.936,0-1.859,0.046-2.767,0.138c-0.908,0.092-1.841,0.23-2.794,0.413l-3.414,24.227h-5.506
			L271.66,6.332z"/>
		<path fill="#4DAF4E" d="M297.273,6.332c2.019-0.917,5.754-1.376,11.205-1.376c6.424,0,9.636,2.808,9.636,8.424
			c0,0.808-0.064,1.67-0.193,2.588l-2.698,19.271h-5.506l2.698-19.271c0.055-0.459,0.082-0.881,0.082-1.267
			c0-2.826-1.606-4.24-4.818-4.24c-0.936,0-1.859,0.046-2.767,0.138c-0.908,0.092-1.841,0.23-2.794,0.413l-3.414,24.227h-5.506
			L297.273,6.332z"/>
		<path fill="#4DAF4E" d="M321.125,18.721c1.303-9.177,5.901-13.765,13.793-13.765c6.405,0,9.608,3.331,9.608,9.994
			c0,1.156-0.092,2.414-0.276,3.772c-0.385,2.753-1.037,4.13-1.955,4.13h-16.243c-0.092,0.679-0.138,1.312-0.138,1.9
			c0,3.322,1.56,4.983,4.68,4.983c3.616,0,6.562-0.404,8.838-1.211l0.33,5.093c-2.056,1.083-5.369,1.624-9.939,1.624
			c-6.241,0-9.361-3.322-9.361-9.966c0-1.174,0.092-2.441,0.276-3.799L321.125,18.721z M338.91,17.62
			c0.091-0.697,0.137-1.349,0.137-1.955c0-3.469-1.643-5.203-4.928-5.203c-4.222,0-6.662,2.386-7.323,7.158H338.91z"/>
		<path fill="#4DAF4E" d="M348.5,6.332c2.019-0.917,5.754-1.376,11.205-1.376c1.266,0,2.404,0.11,3.414,0.33l-2.01,5.451
			c-0.587-0.183-1.321-0.275-2.202-0.275c-0.936,0-1.859,0.046-2.767,0.138c-0.908,0.092-1.841,0.23-2.794,0.413l-3.414,24.227
			h-5.506L348.5,6.332z"/>
	</g>
</g>
</svg>
