<svg xmlns="http://www.w3.org/2000/svg" viewBox="0 0 124 89"><path clip-rule="evenodd" d="m78.4 0h-59.8c-10.3 0-18.6 8.3-18.6 18.6v23.8c0 5.1 2 9.9 5.6 13.5l.2.2c3.6 3.5 8.3 5.4 13.3 5.4h7.4v7.4c0 10.6 8.6 19.1 19.1 19.1h71.8c3.6 0 6.6-2.9 6.6-6.6v-35.8-.3c-.2-10.4-8.7-18.8-19.1-18.8h-7.4v-7.4c0-10.5-8.6-19.1-19.1-19.1zm0 6.1c7.2 0 13 5.8 13 13v13.5h13.5c7.2 0 13 5.8 13 13v35.9c0 .2-.2.4-.4.4h-71.9c-7.2 0-13-5.8-13-13v-13.5h-13.5c-3.4 0-6.7-1.4-9.2-3.8-2.4-2.4-3.8-5.7-3.8-9.2v-23.8c0-6.9 5.6-12.5 12.5-12.5zm-23.4 43.1c-2.9 0-5.3.9-7.2 2.8s-2.9 4.2-2.9 7 1 5.2 2.9 7c1.9 1.9 4.3 2.8 7.2 2.8s5.3-.9 7.3-2.8c1.9-1.9 2.9-4.2 2.9-7s-1-5.2-2.9-7c-2-1.9-4.4-2.8-7.3-2.8zm43 0c-2.6 0-4.5.5-5.9 1.6s-2.1 2.6-2.1 4.6c0 1.7.5 3 1.6 3.9 1.1 1 2.7 1.6 5 1.9l1.1.2c1.1.2 1.9.3 2.3.5s.6.5.6.8c0 .8-.9 1.2-2.6 1.2-2.4 0-4.6-.6-6.6-1.8l-2.1 4.6c2 1.3 4.9 2 8.6 2 2.7 0 4.8-.6 6.4-1.7 1.5-1.2 2.3-2.8 2.3-4.8 0-1.6-.5-2.8-1.6-3.8-1-1-2.6-1.6-4.6-1.9l-1.4-.1c-.6-.1-1-.2-1.3-.2-.3-.1-.6-.1-.9-.2s-.5-.2-.7-.4c-.1-.1-.2-.3-.2-.5 0-.8.7-1.1 2.2-1.1 1.9 0 3.9.5 6.1 1.4l1.7-4.6c-1.6-.6-2.9-1-4.1-1.2-1-.3-2.3-.4-3.8-.4zm-18.4 0c-2.6 0-4.4 1-5.6 2.9v-2.3h-5.7v18.7h6v-10.2c0-1.2.3-2 .9-2.6s1.3-.9 2.2-.9 1.7.3 2.2.9.8 1.4.8 2.6v10.1h6v-12.3c0-2.1-.6-3.8-1.9-5-1.4-1.3-3-1.9-4.9-1.9zm-24.6 5.5c1.2 0 2.2.4 2.9 1.2.8.8 1.1 1.8 1.1 3.1s-.4 2.3-1.1 3.1c-.8.8-1.7 1.2-2.9 1.2s-2.1-.4-2.9-1.2-1.1-1.8-1.1-3.1.4-2.3 1.1-3.1c.8-.8 1.7-1.2 2.9-1.2zm-8.1-33.8c-1.6 0-3.1.4-4.5 1.3-1.3.9-2.4 2.1-3.1 3.6s-1.1 3.2-1.1 5c0 2.8.8 5.1 2.5 7s3.7 2.8 6.2 2.8c2.3 0 4.1-.8 5.4-2.5v2h5.7v-18.7h-5.8v2c-1.2-1.6-3-2.5-5.3-2.5zm-23.9.5h-6.5l7.2 18.7h6.8l7.1-18.7h-6.3l-4.2 12.2zm50.5-.5c-2.6 0-4.4 1-5.6 2.9v-2.3h-5.7v18.7h6v-10.1c0-1.2.3-2 .9-2.6s1.3-.9 2.2-.9 1.7.3 2.2.9.8 1.4.8 2.6v10.1h6v-12.4c0-2.1-.6-3.8-1.9-5-1.4-1.3-3-1.9-4.9-1.9zm-25.2 5.6c1.2 0 2.1.4 2.9 1.2.7.8 1.1 1.8 1.1 3.1 0 1.2-.4 2.3-1.1 3.1s-1.7 1.2-2.9 1.2-2.1-.4-2.9-1.2c-.7-.8-1.1-1.8-1.1-3.1 0-1.2.4-2.3 1.1-3.1.8-.8 1.8-1.2 2.9-1.2z" fill-rule="evenodd"/></svg>